# xmcd
#
# Track frame offsets:
#	150
#	18474
#	36538
#	52931
#	69447
#	86640
#	107188
#	124697
#	143668
#	163400
#	178647
#	204988
#
# Disc length: 2949 seconds
#
# Revision: 4
# Processed by: cddbd v1.5.2PL0 Copyright (c) Steve Scherf et al.
# Submitted via: audiograbber 1.83.01
#
DISCID=a70b830c
DTITLE=Lucie Silvas - Breathe In
DYEAR=2004
DGENRE=Folk/Rock
TTITLE0=Don't Look Back
TTITLE1=The Game Is Won
TTITLE2=Last Man Standing
TTITLE3=Forget Me Not
TTITLE4=Breathe In
TTITLE5=Nothing Else Matters
TTITLE6=Without You
TTITLE7=What You're Made Of
TTITLE8=Twisting The Chain
TTITLE9=No Defence
TTITLE10=The Longer We're Apart
TTITLE11=Like You Love Me
EXTD=
EXTT0=
EXTT1=
EXTT2=
EXTT3=
EXTT4=
EXTT5=
EXTT6=
EXTT7=
EXTT8=
EXTT9=
EXTT10=
EXTT11=
PLAYORDER=
